# xmcd
#
# Track frame offsets:
#	150
#	14803
#	53832
#	66478
#	87368
#
# Disc length: 1557 seconds
#
# Revision: 1
# Processed by: cddbd v1.5.2PL0 Copyright (c) Steve Scherf et al.
# Submitted via: audiograbber 1.83.01
#
DISCID=44061305
DTITLE=Leif de Leeuw Band - EP DeLuxe
DYEAR=2014
DGENRE=Blues
TTITLE0=What About Grey
TTITLE1=Once And For All
TTITLE2=My Shop
TTITLE3=Strictly Confidential
TTITLE4=Boaz
EXTD=
EXTT0=
EXTT1=
EXTT2=
EXTT3=
EXTT4=
PLAYORDER=
